<mxfile host="app.diagrams.net" modified="2023-08-30T04:47:49.113Z" agent="Mozilla/5.0 (Windows NT 10.0; Win64; x64) AppleWebKit/537.36 (KHTML, like Gecko) Chrome/116.0.0.0 Safari/537.36" etag="vXTaFTyaTLt7iwfUdXgO" version="21.6.8" type="device">
  <diagram id="C5RBs43oDa-KdzZeNtuy" name="Page-1">
    <mxGraphModel dx="1886" dy="824" grid="1" gridSize="10" guides="1" tooltips="1" connect="1" arrows="1" fold="1" page="1" pageScale="1" pageWidth="827" pageHeight="1169" math="0" shadow="0">
      <root>
        <mxCell id="WIyWlLk6GJQsqaUBKTNV-0" />
        <mxCell id="WIyWlLk6GJQsqaUBKTNV-1" parent="WIyWlLk6GJQsqaUBKTNV-0" />
        <mxCell id="kzIjWXEysifMPiXRa7z1-8" value="Member" style="shape=table;startSize=30;container=1;collapsible=1;childLayout=tableLayout;fixedRows=1;rowLines=0;fontStyle=1;align=center;resizeLast=1;" vertex="1" parent="WIyWlLk6GJQsqaUBKTNV-1">
          <mxGeometry x="260" y="30" width="560" height="410" as="geometry" />
        </mxCell>
        <mxCell id="kzIjWXEysifMPiXRa7z1-9" value="" style="shape=partialRectangle;collapsible=0;dropTarget=0;pointerEvents=0;fillColor=none;points=[[0,0.5],[1,0.5]];portConstraint=eastwest;top=0;left=0;right=0;bottom=1;" vertex="1" parent="kzIjWXEysifMPiXRa7z1-8">
          <mxGeometry y="30" width="560" height="30" as="geometry" />
        </mxCell>
        <mxCell id="kzIjWXEysifMPiXRa7z1-10" value="PK" style="shape=partialRectangle;overflow=hidden;connectable=0;fillColor=none;top=0;left=0;bottom=0;right=0;fontStyle=1;" vertex="1" parent="kzIjWXEysifMPiXRa7z1-9">
          <mxGeometry width="30" height="30" as="geometry">
            <mxRectangle width="30" height="30" as="alternateBounds" />
          </mxGeometry>
        </mxCell>
        <mxCell id="kzIjWXEysifMPiXRa7z1-11" value="id VARCHAR(16) NOT NULL" style="shape=partialRectangle;overflow=hidden;connectable=0;fillColor=none;top=0;left=0;bottom=0;right=0;align=left;spacingLeft=6;fontStyle=5;" vertex="1" parent="kzIjWXEysifMPiXRa7z1-9">
          <mxGeometry x="30" width="530" height="30" as="geometry">
            <mxRectangle width="530" height="30" as="alternateBounds" />
          </mxGeometry>
        </mxCell>
        <mxCell id="kzIjWXEysifMPiXRa7z1-12" value="" style="shape=partialRectangle;collapsible=0;dropTarget=0;pointerEvents=0;fillColor=none;points=[[0,0.5],[1,0.5]];portConstraint=eastwest;top=0;left=0;right=0;bottom=0;" vertex="1" parent="kzIjWXEysifMPiXRa7z1-8">
          <mxGeometry y="60" width="560" height="350" as="geometry" />
        </mxCell>
        <mxCell id="kzIjWXEysifMPiXRa7z1-13" value="" style="shape=partialRectangle;overflow=hidden;connectable=0;fillColor=none;top=0;left=0;bottom=0;right=0;" vertex="1" parent="kzIjWXEysifMPiXRa7z1-12">
          <mxGeometry width="30" height="350" as="geometry">
            <mxRectangle width="30" height="350" as="alternateBounds" />
          </mxGeometry>
        </mxCell>
        <mxCell id="kzIjWXEysifMPiXRa7z1-14" value="pw VARCHAR(300) NOT NULL&#xa;&#xa;NAME VARCHAR(100) NOT NULL&#xa;&#xa;email VARCHAR(100) NOT NULL&#xa;&#xa;tel VARCHAR(13)&#xa;&#xa;birth DATE&#xa;&#xa;address VARCHAR(300)&#xa;&#xa;postcode VARCHAR(10)&#xa;&#xa;regdate TIMESTAMP NOT NULL DEFAULT CURRENT_TIMESTAMP,&#xa;&#xa;POINT INT DEFAULT 0&#xa;&#xa;grade VARCHAR(4) DEFAULT &#39;F&#39;&#xa;&#xa;state BOOLEAN DEFAULT TRUE" style="shape=partialRectangle;overflow=hidden;connectable=0;fillColor=none;top=0;left=0;bottom=0;right=0;align=left;spacingLeft=6;" vertex="1" parent="kzIjWXEysifMPiXRa7z1-12">
          <mxGeometry x="30" width="530" height="350" as="geometry">
            <mxRectangle width="530" height="350" as="alternateBounds" />
          </mxGeometry>
        </mxCell>
        <mxCell id="kzIjWXEysifMPiXRa7z1-34" value="QnA" style="shape=table;startSize=30;container=1;collapsible=1;childLayout=tableLayout;fixedRows=1;rowLines=0;fontStyle=1;align=center;resizeLast=1;" vertex="1" parent="WIyWlLk6GJQsqaUBKTNV-1">
          <mxGeometry x="850" y="30" width="550" height="380" as="geometry" />
        </mxCell>
        <mxCell id="kzIjWXEysifMPiXRa7z1-35" value="" style="shape=partialRectangle;collapsible=0;dropTarget=0;pointerEvents=0;fillColor=none;points=[[0,0.5],[1,0.5]];portConstraint=eastwest;top=0;left=0;right=0;bottom=1;" vertex="1" parent="kzIjWXEysifMPiXRa7z1-34">
          <mxGeometry y="30" width="550" height="30" as="geometry" />
        </mxCell>
        <mxCell id="kzIjWXEysifMPiXRa7z1-36" value="PK" style="shape=partialRectangle;overflow=hidden;connectable=0;fillColor=none;top=0;left=0;bottom=0;right=0;fontStyle=1;" vertex="1" parent="kzIjWXEysifMPiXRa7z1-35">
          <mxGeometry width="30" height="30" as="geometry">
            <mxRectangle width="30" height="30" as="alternateBounds" />
          </mxGeometry>
        </mxCell>
        <mxCell id="kzIjWXEysifMPiXRa7z1-37" value="qno INT PRIMARY KEY AUTO_INCREMENT" style="shape=partialRectangle;overflow=hidden;connectable=0;fillColor=none;top=0;left=0;bottom=0;right=0;align=left;spacingLeft=6;fontStyle=5;" vertex="1" parent="kzIjWXEysifMPiXRa7z1-35">
          <mxGeometry x="30" width="520" height="30" as="geometry">
            <mxRectangle width="520" height="30" as="alternateBounds" />
          </mxGeometry>
        </mxCell>
        <mxCell id="kzIjWXEysifMPiXRa7z1-38" value="" style="shape=partialRectangle;collapsible=0;dropTarget=0;pointerEvents=0;fillColor=none;points=[[0,0.5],[1,0.5]];portConstraint=eastwest;top=0;left=0;right=0;bottom=0;" vertex="1" parent="kzIjWXEysifMPiXRa7z1-34">
          <mxGeometry y="60" width="550" height="320" as="geometry" />
        </mxCell>
        <mxCell id="kzIjWXEysifMPiXRa7z1-39" value="" style="shape=partialRectangle;overflow=hidden;connectable=0;fillColor=none;top=0;left=0;bottom=0;right=0;" vertex="1" parent="kzIjWXEysifMPiXRa7z1-38">
          <mxGeometry width="30" height="320" as="geometry">
            <mxRectangle width="30" height="320" as="alternateBounds" />
          </mxGeometry>
        </mxCell>
        <mxCell id="kzIjWXEysifMPiXRa7z1-40" value="title VARCHAR(100) NOT NULL&#xa;&#xa;content VARCHAR(1000) NOT NULL&#xa;&#xa;Â author VARCHAR(16)&#xa;&#xa;regdate TIMESTAMP DEFAULT CURRENT_TIMESTAMP()&#xa;&#xa;visited INT DEFAULT 0&#xa;&#xa;lev INT DEFAULT 0&#xa;&#xa;par INT&#xa;&#xa;secret BOOLEAN DEFAULT 0&#xa;&#xa;FOREIGN KEY(author) REFERENCES member(id) ON DELETE CASCADE" style="shape=partialRectangle;overflow=hidden;connectable=0;fillColor=none;top=0;left=0;bottom=0;right=0;align=left;spacingLeft=6;" vertex="1" parent="kzIjWXEysifMPiXRa7z1-38">
          <mxGeometry x="30" width="520" height="320" as="geometry">
            <mxRectangle width="520" height="320" as="alternateBounds" />
          </mxGeometry>
        </mxCell>
        <mxCell id="kzIjWXEysifMPiXRa7z1-55" value="FK" style="text;html=1;strokeColor=none;fillColor=none;align=center;verticalAlign=middle;whiteSpace=wrap;rounded=0;" vertex="1" parent="WIyWlLk6GJQsqaUBKTNV-1">
          <mxGeometry x="850" y="350" width="30" height="30" as="geometry" />
        </mxCell>
        <mxCell id="kzIjWXEysifMPiXRa7z1-56" value="Faq" style="shape=table;startSize=30;container=1;collapsible=1;childLayout=tableLayout;fixedRows=1;rowLines=0;fontStyle=1;align=center;resizeLast=1;" vertex="1" parent="WIyWlLk6GJQsqaUBKTNV-1">
          <mxGeometry x="260" y="470" width="530" height="210" as="geometry" />
        </mxCell>
        <mxCell id="kzIjWXEysifMPiXRa7z1-57" value="" style="shape=partialRectangle;collapsible=0;dropTarget=0;pointerEvents=0;fillColor=none;points=[[0,0.5],[1,0.5]];portConstraint=eastwest;top=0;left=0;right=0;bottom=1;" vertex="1" parent="kzIjWXEysifMPiXRa7z1-56">
          <mxGeometry y="30" width="530" height="30" as="geometry" />
        </mxCell>
        <mxCell id="kzIjWXEysifMPiXRa7z1-58" value="PK" style="shape=partialRectangle;overflow=hidden;connectable=0;fillColor=none;top=0;left=0;bottom=0;right=0;fontStyle=1;" vertex="1" parent="kzIjWXEysifMPiXRa7z1-57">
          <mxGeometry width="30" height="30" as="geometry">
            <mxRectangle width="30" height="30" as="alternateBounds" />
          </mxGeometry>
        </mxCell>
        <mxCell id="kzIjWXEysifMPiXRa7z1-59" value="fno INT PRIMARY KEY AUTO_INCREMENT," style="shape=partialRectangle;overflow=hidden;connectable=0;fillColor=none;top=0;left=0;bottom=0;right=0;align=left;spacingLeft=6;fontStyle=5;" vertex="1" parent="kzIjWXEysifMPiXRa7z1-57">
          <mxGeometry x="30" width="500" height="30" as="geometry">
            <mxRectangle width="500" height="30" as="alternateBounds" />
          </mxGeometry>
        </mxCell>
        <mxCell id="kzIjWXEysifMPiXRa7z1-60" value="" style="shape=partialRectangle;collapsible=0;dropTarget=0;pointerEvents=0;fillColor=none;points=[[0,0.5],[1,0.5]];portConstraint=eastwest;top=0;left=0;right=0;bottom=0;" vertex="1" parent="kzIjWXEysifMPiXRa7z1-56">
          <mxGeometry y="60" width="530" height="140" as="geometry" />
        </mxCell>
        <mxCell id="kzIjWXEysifMPiXRa7z1-61" value="" style="shape=partialRectangle;overflow=hidden;connectable=0;fillColor=none;top=0;left=0;bottom=0;right=0;" vertex="1" parent="kzIjWXEysifMPiXRa7z1-60">
          <mxGeometry width="30" height="140" as="geometry">
            <mxRectangle width="30" height="140" as="alternateBounds" />
          </mxGeometry>
        </mxCell>
        <mxCell id="kzIjWXEysifMPiXRa7z1-62" value="fno INT PRIMARY KEY AUTO_INCREMENT&#xa;&#xa;title VARCHAR(100) NOT NULL&#xa;&#xa;content VARCHAR(1000) NOT NULL&#xa;&#xa;regdate TIMESTAMP DEFAULT CURRENT_TIMESTAMP()" style="shape=partialRectangle;overflow=hidden;connectable=0;fillColor=none;top=0;left=0;bottom=0;right=0;align=left;spacingLeft=6;" vertex="1" parent="kzIjWXEysifMPiXRa7z1-60">
          <mxGeometry x="30" width="500" height="140" as="geometry">
            <mxRectangle width="500" height="140" as="alternateBounds" />
          </mxGeometry>
        </mxCell>
        <mxCell id="kzIjWXEysifMPiXRa7z1-75" value="Notice" style="shape=table;startSize=30;container=1;collapsible=1;childLayout=tableLayout;fixedRows=1;rowLines=0;fontStyle=1;align=center;resizeLast=1;" vertex="1" parent="WIyWlLk6GJQsqaUBKTNV-1">
          <mxGeometry x="850" y="480" width="530" height="200" as="geometry" />
        </mxCell>
        <mxCell id="kzIjWXEysifMPiXRa7z1-76" value="" style="shape=partialRectangle;collapsible=0;dropTarget=0;pointerEvents=0;fillColor=none;points=[[0,0.5],[1,0.5]];portConstraint=eastwest;top=0;left=0;right=0;bottom=1;" vertex="1" parent="kzIjWXEysifMPiXRa7z1-75">
          <mxGeometry y="30" width="530" height="30" as="geometry" />
        </mxCell>
        <mxCell id="kzIjWXEysifMPiXRa7z1-77" value="PK" style="shape=partialRectangle;overflow=hidden;connectable=0;fillColor=none;top=0;left=0;bottom=0;right=0;fontStyle=1;" vertex="1" parent="kzIjWXEysifMPiXRa7z1-76">
          <mxGeometry width="30" height="30" as="geometry">
            <mxRectangle width="30" height="30" as="alternateBounds" />
          </mxGeometry>
        </mxCell>
        <mxCell id="kzIjWXEysifMPiXRa7z1-78" value="no INT primary KEY AUTO_INCREMENT" style="shape=partialRectangle;overflow=hidden;connectable=0;fillColor=none;top=0;left=0;bottom=0;right=0;align=left;spacingLeft=6;fontStyle=5;" vertex="1" parent="kzIjWXEysifMPiXRa7z1-76">
          <mxGeometry x="30" width="500" height="30" as="geometry">
            <mxRectangle width="500" height="30" as="alternateBounds" />
          </mxGeometry>
        </mxCell>
        <mxCell id="kzIjWXEysifMPiXRa7z1-79" value="" style="shape=partialRectangle;collapsible=0;dropTarget=0;pointerEvents=0;fillColor=none;points=[[0,0.5],[1,0.5]];portConstraint=eastwest;top=0;left=0;right=0;bottom=0;" vertex="1" parent="kzIjWXEysifMPiXRa7z1-75">
          <mxGeometry y="60" width="530" height="140" as="geometry" />
        </mxCell>
        <mxCell id="kzIjWXEysifMPiXRa7z1-80" value="" style="shape=partialRectangle;overflow=hidden;connectable=0;fillColor=none;top=0;left=0;bottom=0;right=0;" vertex="1" parent="kzIjWXEysifMPiXRa7z1-79">
          <mxGeometry width="30" height="140" as="geometry">
            <mxRectangle width="30" height="140" as="alternateBounds" />
          </mxGeometry>
        </mxCell>
        <mxCell id="kzIjWXEysifMPiXRa7z1-81" value="title varchar(200) not NULL&#xa;&#xa;content varchar(1000)&#xa;&#xa;regdate TIMESTAMP DEFAULT CURRENT_TIMESTAMP()&#xa;&#xa;visited INTEGER DEFAULT 0" style="shape=partialRectangle;overflow=hidden;connectable=0;fillColor=none;top=0;left=0;bottom=0;right=0;align=left;spacingLeft=6;" vertex="1" parent="kzIjWXEysifMPiXRa7z1-79">
          <mxGeometry x="30" width="500" height="140" as="geometry">
            <mxRectangle width="500" height="140" as="alternateBounds" />
          </mxGeometry>
        </mxCell>
        <mxCell id="kzIjWXEysifMPiXRa7z1-83" value="category" style="shape=table;startSize=30;container=1;collapsible=1;childLayout=tableLayout;fixedRows=1;rowLines=0;fontStyle=1;align=center;resizeLast=1;" vertex="1" parent="WIyWlLk6GJQsqaUBKTNV-1">
          <mxGeometry x="260" y="730" width="530" height="200" as="geometry" />
        </mxCell>
        <mxCell id="kzIjWXEysifMPiXRa7z1-84" value="" style="shape=partialRectangle;collapsible=0;dropTarget=0;pointerEvents=0;fillColor=none;points=[[0,0.5],[1,0.5]];portConstraint=eastwest;top=0;left=0;right=0;bottom=1;" vertex="1" parent="kzIjWXEysifMPiXRa7z1-83">
          <mxGeometry y="30" width="530" height="30" as="geometry" />
        </mxCell>
        <mxCell id="kzIjWXEysifMPiXRa7z1-85" value="PK" style="shape=partialRectangle;overflow=hidden;connectable=0;fillColor=none;top=0;left=0;bottom=0;right=0;fontStyle=1;" vertex="1" parent="kzIjWXEysifMPiXRa7z1-84">
          <mxGeometry width="30" height="30" as="geometry">
            <mxRectangle width="30" height="30" as="alternateBounds" />
          </mxGeometry>
        </mxCell>
        <mxCell id="kzIjWXEysifMPiXRa7z1-86" value="categoryId VARCHAR(4) PRIMARY KEY" style="shape=partialRectangle;overflow=hidden;connectable=0;fillColor=none;top=0;left=0;bottom=0;right=0;align=left;spacingLeft=6;fontStyle=5;" vertex="1" parent="kzIjWXEysifMPiXRa7z1-84">
          <mxGeometry x="30" width="500" height="30" as="geometry">
            <mxRectangle width="500" height="30" as="alternateBounds" />
          </mxGeometry>
        </mxCell>
        <mxCell id="kzIjWXEysifMPiXRa7z1-87" value="" style="shape=partialRectangle;collapsible=0;dropTarget=0;pointerEvents=0;fillColor=none;points=[[0,0.5],[1,0.5]];portConstraint=eastwest;top=0;left=0;right=0;bottom=0;" vertex="1" parent="kzIjWXEysifMPiXRa7z1-83">
          <mxGeometry y="60" width="530" height="140" as="geometry" />
        </mxCell>
        <mxCell id="kzIjWXEysifMPiXRa7z1-88" value="" style="shape=partialRectangle;overflow=hidden;connectable=0;fillColor=none;top=0;left=0;bottom=0;right=0;" vertex="1" parent="kzIjWXEysifMPiXRa7z1-87">
          <mxGeometry width="30" height="140" as="geometry">
            <mxRectangle width="30" height="140" as="alternateBounds" />
          </mxGeometry>
        </mxCell>
        <mxCell id="kzIjWXEysifMPiXRa7z1-89" value="categoryName varchar(100) not NULL" style="shape=partialRectangle;overflow=hidden;connectable=0;fillColor=none;top=0;left=0;bottom=0;right=0;align=left;spacingLeft=6;" vertex="1" parent="kzIjWXEysifMPiXRa7z1-87">
          <mxGeometry x="30" width="500" height="140" as="geometry">
            <mxRectangle width="500" height="140" as="alternateBounds" />
          </mxGeometry>
        </mxCell>
        <mxCell id="kzIjWXEysifMPiXRa7z1-90" value="product" style="shape=table;startSize=30;container=1;collapsible=1;childLayout=tableLayout;fixedRows=1;rowLines=0;fontStyle=1;align=center;resizeLast=1;" vertex="1" parent="WIyWlLk6GJQsqaUBKTNV-1">
          <mxGeometry x="850" y="739" width="530" height="321" as="geometry" />
        </mxCell>
        <mxCell id="kzIjWXEysifMPiXRa7z1-91" value="" style="shape=partialRectangle;collapsible=0;dropTarget=0;pointerEvents=0;fillColor=none;points=[[0,0.5],[1,0.5]];portConstraint=eastwest;top=0;left=0;right=0;bottom=1;" vertex="1" parent="kzIjWXEysifMPiXRa7z1-90">
          <mxGeometry y="30" width="530" height="30" as="geometry" />
        </mxCell>
        <mxCell id="kzIjWXEysifMPiXRa7z1-92" value="PK" style="shape=partialRectangle;overflow=hidden;connectable=0;fillColor=none;top=0;left=0;bottom=0;right=0;fontStyle=1;" vertex="1" parent="kzIjWXEysifMPiXRa7z1-91">
          <mxGeometry width="30" height="30" as="geometry">
            <mxRectangle width="30" height="30" as="alternateBounds" />
          </mxGeometry>
        </mxCell>
        <mxCell id="kzIjWXEysifMPiXRa7z1-93" value="proNo INT PRIMARY KEY AUTO_INCREMENT," style="shape=partialRectangle;overflow=hidden;connectable=0;fillColor=none;top=0;left=0;bottom=0;right=0;align=left;spacingLeft=6;fontStyle=5;" vertex="1" parent="kzIjWXEysifMPiXRa7z1-91">
          <mxGeometry x="30" width="500" height="30" as="geometry">
            <mxRectangle width="500" height="30" as="alternateBounds" />
          </mxGeometry>
        </mxCell>
        <mxCell id="kzIjWXEysifMPiXRa7z1-94" value="" style="shape=partialRectangle;collapsible=0;dropTarget=0;pointerEvents=0;fillColor=none;points=[[0,0.5],[1,0.5]];portConstraint=eastwest;top=0;left=0;right=0;bottom=0;" vertex="1" parent="kzIjWXEysifMPiXRa7z1-90">
          <mxGeometry y="60" width="530" height="260" as="geometry" />
        </mxCell>
        <mxCell id="kzIjWXEysifMPiXRa7z1-95" value="" style="shape=partialRectangle;overflow=hidden;connectable=0;fillColor=none;top=0;left=0;bottom=0;right=0;" vertex="1" parent="kzIjWXEysifMPiXRa7z1-94">
          <mxGeometry width="30" height="260" as="geometry">
            <mxRectangle width="30" height="260" as="alternateBounds" />
          </mxGeometry>
        </mxCell>
        <mxCell id="kzIjWXEysifMPiXRa7z1-96" value="categoryId VARCHAR(4) NOT NULL&#xa;&#xa;procategory VARCHAR(100)&#xa;&#xa;Â price INT DEFAULT 0&#xa;&#xa;Â title VARCHAR(100) NOT NULL&#xa;&#xa;description VARCHAR(200)&#xa;&#xa;content VARCHAR(2000)&#xa;&#xa;img VARCHAR(5000) default 0&#xa;Â Â Â Â &#xa;regdate timestamp default CURRENT_TIMESTAMP()&#xa;Â  Â  &#xa;video VARCHAR(5000) default 0" style="shape=partialRectangle;overflow=hidden;connectable=0;fillColor=none;top=0;left=0;bottom=0;right=0;align=left;spacingLeft=6;" vertex="1" parent="kzIjWXEysifMPiXRa7z1-94">
          <mxGeometry x="30" width="500" height="260" as="geometry">
            <mxRectangle width="500" height="260" as="alternateBounds" />
          </mxGeometry>
        </mxCell>
        <mxCell id="kzIjWXEysifMPiXRa7z1-99" value="book" style="shape=table;startSize=30;container=1;collapsible=1;childLayout=tableLayout;fixedRows=1;rowLines=0;fontStyle=1;align=center;resizeLast=1;" vertex="1" parent="WIyWlLk6GJQsqaUBKTNV-1">
          <mxGeometry x="260" y="1050" width="530" height="310" as="geometry" />
        </mxCell>
        <mxCell id="kzIjWXEysifMPiXRa7z1-100" value="" style="shape=partialRectangle;collapsible=0;dropTarget=0;pointerEvents=0;fillColor=none;points=[[0,0.5],[1,0.5]];portConstraint=eastwest;top=0;left=0;right=0;bottom=1;" vertex="1" parent="kzIjWXEysifMPiXRa7z1-99">
          <mxGeometry y="30" width="530" height="30" as="geometry" />
        </mxCell>
        <mxCell id="kzIjWXEysifMPiXRa7z1-101" value="PK" style="shape=partialRectangle;overflow=hidden;connectable=0;fillColor=none;top=0;left=0;bottom=0;right=0;fontStyle=1;" vertex="1" parent="kzIjWXEysifMPiXRa7z1-100">
          <mxGeometry width="30" height="30" as="geometry">
            <mxRectangle width="30" height="30" as="alternateBounds" />
          </mxGeometry>
        </mxCell>
        <mxCell id="kzIjWXEysifMPiXRa7z1-102" value="bookNo INT PRIMARY KEY AUTO_INCREMENT" style="shape=partialRectangle;overflow=hidden;connectable=0;fillColor=none;top=0;left=0;bottom=0;right=0;align=left;spacingLeft=6;fontStyle=5;" vertex="1" parent="kzIjWXEysifMPiXRa7z1-100">
          <mxGeometry x="30" width="500" height="30" as="geometry">
            <mxRectangle width="500" height="30" as="alternateBounds" />
          </mxGeometry>
        </mxCell>
        <mxCell id="kzIjWXEysifMPiXRa7z1-103" value="" style="shape=partialRectangle;collapsible=0;dropTarget=0;pointerEvents=0;fillColor=none;points=[[0,0.5],[1,0.5]];portConstraint=eastwest;top=0;left=0;right=0;bottom=0;" vertex="1" parent="kzIjWXEysifMPiXRa7z1-99">
          <mxGeometry y="60" width="530" height="250" as="geometry" />
        </mxCell>
        <mxCell id="kzIjWXEysifMPiXRa7z1-104" value="" style="shape=partialRectangle;overflow=hidden;connectable=0;fillColor=none;top=0;left=0;bottom=0;right=0;" vertex="1" parent="kzIjWXEysifMPiXRa7z1-103">
          <mxGeometry width="30" height="250" as="geometry">
            <mxRectangle width="30" height="250" as="alternateBounds" />
          </mxGeometry>
        </mxCell>
        <mxCell id="kzIjWXEysifMPiXRa7z1-105" value="&#xa;Â Â Â Â proNo INT&#xa;&#xa;Â Â Â Â publish VARCHAR(100)&#xa;&#xa;Â  Â  author VARCHAR(100)&#xa;&#xa;Â  Â  title VARCHAR(100) NOT NULL&#xa;&#xa;Â  Â  content VARCHAR(5000)&#xa;&#xa;Â  Â  img VARCHAR(5000) DEFAULT &#39;no_img.jpg&#39;&#xa;&#xa;Â  Â  video VARCHAR(5000) DEFAULT &#39;no_video.mp4&#39;Â " style="shape=partialRectangle;overflow=hidden;connectable=0;fillColor=none;top=0;left=0;bottom=0;right=0;align=left;spacingLeft=6;" vertex="1" parent="kzIjWXEysifMPiXRa7z1-103">
          <mxGeometry x="30" width="500" height="250" as="geometry">
            <mxRectangle width="500" height="250" as="alternateBounds" />
          </mxGeometry>
        </mxCell>
        <mxCell id="kzIjWXEysifMPiXRa7z1-109" value="instock" style="shape=table;startSize=30;container=1;collapsible=1;childLayout=tableLayout;fixedRows=1;rowLines=0;fontStyle=1;align=center;resizeLast=1;" vertex="1" parent="WIyWlLk6GJQsqaUBKTNV-1">
          <mxGeometry x="850" y="1110" width="530" height="200" as="geometry" />
        </mxCell>
        <mxCell id="kzIjWXEysifMPiXRa7z1-110" value="" style="shape=partialRectangle;collapsible=0;dropTarget=0;pointerEvents=0;fillColor=none;points=[[0,0.5],[1,0.5]];portConstraint=eastwest;top=0;left=0;right=0;bottom=1;" vertex="1" parent="kzIjWXEysifMPiXRa7z1-109">
          <mxGeometry y="30" width="530" height="30" as="geometry" />
        </mxCell>
        <mxCell id="kzIjWXEysifMPiXRa7z1-111" value="PK" style="shape=partialRectangle;overflow=hidden;connectable=0;fillColor=none;top=0;left=0;bottom=0;right=0;fontStyle=1;" vertex="1" parent="kzIjWXEysifMPiXRa7z1-110">
          <mxGeometry width="30" height="30" as="geometry">
            <mxRectangle width="30" height="30" as="alternateBounds" />
          </mxGeometry>
        </mxCell>
        <mxCell id="kzIjWXEysifMPiXRa7z1-112" value="inNo INT PRIMARY KEY AUTO_INCREMENT" style="shape=partialRectangle;overflow=hidden;connectable=0;fillColor=none;top=0;left=0;bottom=0;right=0;align=left;spacingLeft=6;fontStyle=5;" vertex="1" parent="kzIjWXEysifMPiXRa7z1-110">
          <mxGeometry x="30" width="500" height="30" as="geometry">
            <mxRectangle width="500" height="30" as="alternateBounds" />
          </mxGeometry>
        </mxCell>
        <mxCell id="kzIjWXEysifMPiXRa7z1-113" value="" style="shape=partialRectangle;collapsible=0;dropTarget=0;pointerEvents=0;fillColor=none;points=[[0,0.5],[1,0.5]];portConstraint=eastwest;top=0;left=0;right=0;bottom=0;" vertex="1" parent="kzIjWXEysifMPiXRa7z1-109">
          <mxGeometry y="60" width="530" height="140" as="geometry" />
        </mxCell>
        <mxCell id="kzIjWXEysifMPiXRa7z1-114" value="" style="shape=partialRectangle;overflow=hidden;connectable=0;fillColor=none;top=0;left=0;bottom=0;right=0;" vertex="1" parent="kzIjWXEysifMPiXRa7z1-113">
          <mxGeometry width="30" height="140" as="geometry">
            <mxRectangle width="30" height="140" as="alternateBounds" />
          </mxGeometry>
        </mxCell>
        <mxCell id="kzIjWXEysifMPiXRa7z1-115" value="Â Â Â Â proNo INT NOT NULL&#xa;&#xa;Â  Â  amount INT NOT NULL DEFAULT 0&#xa;Â  Â  &#xa;Â Â Â Â inPrice INT DEFAULT 0&#xa;&#xa;Â  Â  regdate timestamp default CURRENT_TIMESTAMPÂ " style="shape=partialRectangle;overflow=hidden;connectable=0;fillColor=none;top=0;left=0;bottom=0;right=0;align=left;spacingLeft=6;" vertex="1" parent="kzIjWXEysifMPiXRa7z1-113">
          <mxGeometry x="30" width="500" height="140" as="geometry">
            <mxRectangle width="500" height="140" as="alternateBounds" />
          </mxGeometry>
        </mxCell>
        <mxCell id="kzIjWXEysifMPiXRa7z1-116" value="outstock" style="shape=table;startSize=30;container=1;collapsible=1;childLayout=tableLayout;fixedRows=1;rowLines=0;fontStyle=1;align=center;resizeLast=1;" vertex="1" parent="WIyWlLk6GJQsqaUBKTNV-1">
          <mxGeometry x="260" y="1430" width="530" height="200" as="geometry" />
        </mxCell>
        <mxCell id="kzIjWXEysifMPiXRa7z1-117" value="" style="shape=partialRectangle;collapsible=0;dropTarget=0;pointerEvents=0;fillColor=none;points=[[0,0.5],[1,0.5]];portConstraint=eastwest;top=0;left=0;right=0;bottom=1;" vertex="1" parent="kzIjWXEysifMPiXRa7z1-116">
          <mxGeometry y="30" width="530" height="30" as="geometry" />
        </mxCell>
        <mxCell id="kzIjWXEysifMPiXRa7z1-118" value="PK" style="shape=partialRectangle;overflow=hidden;connectable=0;fillColor=none;top=0;left=0;bottom=0;right=0;fontStyle=1;" vertex="1" parent="kzIjWXEysifMPiXRa7z1-117">
          <mxGeometry width="30" height="30" as="geometry">
            <mxRectangle width="30" height="30" as="alternateBounds" />
          </mxGeometry>
        </mxCell>
        <mxCell id="kzIjWXEysifMPiXRa7z1-119" value="outNo INT PRIMARY KEY AUTO_INCREMENT" style="shape=partialRectangle;overflow=hidden;connectable=0;fillColor=none;top=0;left=0;bottom=0;right=0;align=left;spacingLeft=6;fontStyle=5;" vertex="1" parent="kzIjWXEysifMPiXRa7z1-117">
          <mxGeometry x="30" width="500" height="30" as="geometry">
            <mxRectangle width="500" height="30" as="alternateBounds" />
          </mxGeometry>
        </mxCell>
        <mxCell id="kzIjWXEysifMPiXRa7z1-120" value="" style="shape=partialRectangle;collapsible=0;dropTarget=0;pointerEvents=0;fillColor=none;points=[[0,0.5],[1,0.5]];portConstraint=eastwest;top=0;left=0;right=0;bottom=0;" vertex="1" parent="kzIjWXEysifMPiXRa7z1-116">
          <mxGeometry y="60" width="530" height="140" as="geometry" />
        </mxCell>
        <mxCell id="kzIjWXEysifMPiXRa7z1-121" value="" style="shape=partialRectangle;overflow=hidden;connectable=0;fillColor=none;top=0;left=0;bottom=0;right=0;" vertex="1" parent="kzIjWXEysifMPiXRa7z1-120">
          <mxGeometry width="30" height="140" as="geometry">
            <mxRectangle width="30" height="140" as="alternateBounds" />
          </mxGeometry>
        </mxCell>
        <mxCell id="kzIjWXEysifMPiXRa7z1-122" value="&#xa;proNo INT NOT NULL&#xa;Â Â Â Â &#xa;amount INT NOT NULL DEFAULT 0&#xa;Â Â Â Â &#xa;outPrice INT DEFAULT 0&#xa;Â Â Â Â &#xa;regdate timestamp default CURRENT_TIMESTAMP" style="shape=partialRectangle;overflow=hidden;connectable=0;fillColor=none;top=0;left=0;bottom=0;right=0;align=left;spacingLeft=6;" vertex="1" parent="kzIjWXEysifMPiXRa7z1-120">
          <mxGeometry x="30" width="500" height="140" as="geometry">
            <mxRectangle width="500" height="140" as="alternateBounds" />
          </mxGeometry>
        </mxCell>
        <mxCell id="kzIjWXEysifMPiXRa7z1-123" value="delivery" style="shape=table;startSize=30;container=1;collapsible=1;childLayout=tableLayout;fixedRows=1;rowLines=0;fontStyle=1;align=center;resizeLast=1;" vertex="1" parent="WIyWlLk6GJQsqaUBKTNV-1">
          <mxGeometry x="850" y="1430" width="530" height="390" as="geometry" />
        </mxCell>
        <mxCell id="kzIjWXEysifMPiXRa7z1-124" value="" style="shape=partialRectangle;collapsible=0;dropTarget=0;pointerEvents=0;fillColor=none;points=[[0,0.5],[1,0.5]];portConstraint=eastwest;top=0;left=0;right=0;bottom=1;" vertex="1" parent="kzIjWXEysifMPiXRa7z1-123">
          <mxGeometry y="30" width="530" height="30" as="geometry" />
        </mxCell>
        <mxCell id="kzIjWXEysifMPiXRa7z1-125" value="PK" style="shape=partialRectangle;overflow=hidden;connectable=0;fillColor=none;top=0;left=0;bottom=0;right=0;fontStyle=1;" vertex="1" parent="kzIjWXEysifMPiXRa7z1-124">
          <mxGeometry width="30" height="30" as="geometry">
            <mxRectangle width="30" height="30" as="alternateBounds" />
          </mxGeometry>
        </mxCell>
        <mxCell id="kzIjWXEysifMPiXRa7z1-126" value="dno INT PRIMARY KEY AUTO_INCREMENT" style="shape=partialRectangle;overflow=hidden;connectable=0;fillColor=none;top=0;left=0;bottom=0;right=0;align=left;spacingLeft=6;fontStyle=5;" vertex="1" parent="kzIjWXEysifMPiXRa7z1-124">
          <mxGeometry x="30" width="500" height="30" as="geometry">
            <mxRectangle width="500" height="30" as="alternateBounds" />
          </mxGeometry>
        </mxCell>
        <mxCell id="kzIjWXEysifMPiXRa7z1-127" value="" style="shape=partialRectangle;collapsible=0;dropTarget=0;pointerEvents=0;fillColor=none;points=[[0,0.5],[1,0.5]];portConstraint=eastwest;top=0;left=0;right=0;bottom=0;" vertex="1" parent="kzIjWXEysifMPiXRa7z1-123">
          <mxGeometry y="60" width="530" height="330" as="geometry" />
        </mxCell>
        <mxCell id="kzIjWXEysifMPiXRa7z1-128" value="" style="shape=partialRectangle;overflow=hidden;connectable=0;fillColor=none;top=0;left=0;bottom=0;right=0;" vertex="1" parent="kzIjWXEysifMPiXRa7z1-127">
          <mxGeometry width="30" height="330" as="geometry">
            <mxRectangle width="30" height="330" as="alternateBounds" />
          </mxGeometry>
        </mxCell>
        <mxCell id="kzIjWXEysifMPiXRa7z1-129" value="&#xa;Â Â Â Â payNo INT NOT NULL&#xa;Â Â Â Â &#xa;Â Â Â Â memId VARCHAR(16) NOT NULL&#xa;&#xa;Â  Â  NAME VARCHAR(30) NOT NULL&#xa;&#xa;Â  Â  tel VARCHAR(13) NOT NULL&#xa;&#xa;Â  Â  address VARCHAR(300) NOT NULL&#xa;&#xa;Â  Â  dcom varchar(100)&#xa;&#xa;Â  Â  dtel varchar(13)&#xa;&#xa;Â  Â  state integer default 0&#xa;&#xa;Â  Â  etd timestamp default CURRENT_TIMESTAMP&#xa;&#xa;Â  Â  eta DATE&#xa;&#xa;Â  Â  dcode varchar(30)" style="shape=partialRectangle;overflow=hidden;connectable=0;fillColor=none;top=0;left=0;bottom=0;right=0;align=left;spacingLeft=6;" vertex="1" parent="kzIjWXEysifMPiXRa7z1-127">
          <mxGeometry x="30" width="500" height="330" as="geometry">
            <mxRectangle width="500" height="330" as="alternateBounds" />
          </mxGeometry>
        </mxCell>
        <mxCell id="kzIjWXEysifMPiXRa7z1-131" value="payment" style="shape=table;startSize=30;container=1;collapsible=1;childLayout=tableLayout;fixedRows=1;rowLines=0;fontStyle=1;align=center;resizeLast=1;" vertex="1" parent="WIyWlLk6GJQsqaUBKTNV-1">
          <mxGeometry x="260" y="1690" width="530" height="350" as="geometry" />
        </mxCell>
        <mxCell id="kzIjWXEysifMPiXRa7z1-132" value="" style="shape=partialRectangle;collapsible=0;dropTarget=0;pointerEvents=0;fillColor=none;points=[[0,0.5],[1,0.5]];portConstraint=eastwest;top=0;left=0;right=0;bottom=1;" vertex="1" parent="kzIjWXEysifMPiXRa7z1-131">
          <mxGeometry y="30" width="530" height="30" as="geometry" />
        </mxCell>
        <mxCell id="kzIjWXEysifMPiXRa7z1-133" value="PK" style="shape=partialRectangle;overflow=hidden;connectable=0;fillColor=none;top=0;left=0;bottom=0;right=0;fontStyle=1;" vertex="1" parent="kzIjWXEysifMPiXRa7z1-132">
          <mxGeometry width="30" height="30" as="geometry">
            <mxRectangle width="30" height="30" as="alternateBounds" />
          </mxGeometry>
        </mxCell>
        <mxCell id="kzIjWXEysifMPiXRa7z1-134" value="payNo INT PRIMARY KEY AUTO_INCREMENT" style="shape=partialRectangle;overflow=hidden;connectable=0;fillColor=none;top=0;left=0;bottom=0;right=0;align=left;spacingLeft=6;fontStyle=5;" vertex="1" parent="kzIjWXEysifMPiXRa7z1-132">
          <mxGeometry x="30" width="500" height="30" as="geometry">
            <mxRectangle width="500" height="30" as="alternateBounds" />
          </mxGeometry>
        </mxCell>
        <mxCell id="kzIjWXEysifMPiXRa7z1-135" value="" style="shape=partialRectangle;collapsible=0;dropTarget=0;pointerEvents=0;fillColor=none;points=[[0,0.5],[1,0.5]];portConstraint=eastwest;top=0;left=0;right=0;bottom=0;" vertex="1" parent="kzIjWXEysifMPiXRa7z1-131">
          <mxGeometry y="60" width="530" height="290" as="geometry" />
        </mxCell>
        <mxCell id="kzIjWXEysifMPiXRa7z1-136" value="" style="shape=partialRectangle;overflow=hidden;connectable=0;fillColor=none;top=0;left=0;bottom=0;right=0;" vertex="1" parent="kzIjWXEysifMPiXRa7z1-135">
          <mxGeometry width="30" height="290" as="geometry">
            <mxRectangle width="30" height="290" as="alternateBounds" />
          </mxGeometry>
        </mxCell>
        <mxCell id="kzIjWXEysifMPiXRa7z1-137" value="Â Â Â Â payNo INT PRIMARY KEY AUTO_INCREMENT&#xa;&#xa;Â Â Â Â memId VARCHAR(16) not NULL&#xa;&#xa;Â  Â  proNo INT not NULL&#xa;&#xa;Â  Â  payPrice INTEGER NOT NULL&#xa;&#xa;Â  Â  amount integer default 1&#xa;&#xa;Â  Â  method varchar(100)&#xa;&#xa;Â  Â  pcom varchar(100)&#xa;&#xa;Â  Â  paccount VARCHAR(100)&#xa;Â Â Â Â &#xa;Â Â Â Â dno INT" style="shape=partialRectangle;overflow=hidden;connectable=0;fillColor=none;top=0;left=0;bottom=0;right=0;align=left;spacingLeft=6;" vertex="1" parent="kzIjWXEysifMPiXRa7z1-135">
          <mxGeometry x="30" width="500" height="290" as="geometry">
            <mxRectangle width="500" height="290" as="alternateBounds" />
          </mxGeometry>
        </mxCell>
        <mxCell id="kzIjWXEysifMPiXRa7z1-138" value="cart" style="shape=table;startSize=30;container=1;collapsible=1;childLayout=tableLayout;fixedRows=1;rowLines=0;fontStyle=1;align=center;resizeLast=1;" vertex="1" parent="WIyWlLk6GJQsqaUBKTNV-1">
          <mxGeometry x="260" y="2060" width="530" height="260" as="geometry" />
        </mxCell>
        <mxCell id="kzIjWXEysifMPiXRa7z1-139" value="" style="shape=partialRectangle;collapsible=0;dropTarget=0;pointerEvents=0;fillColor=none;points=[[0,0.5],[1,0.5]];portConstraint=eastwest;top=0;left=0;right=0;bottom=1;" vertex="1" parent="kzIjWXEysifMPiXRa7z1-138">
          <mxGeometry y="30" width="530" height="30" as="geometry" />
        </mxCell>
        <mxCell id="kzIjWXEysifMPiXRa7z1-140" value="PK" style="shape=partialRectangle;overflow=hidden;connectable=0;fillColor=none;top=0;left=0;bottom=0;right=0;fontStyle=1;" vertex="1" parent="kzIjWXEysifMPiXRa7z1-139">
          <mxGeometry width="30" height="30" as="geometry">
            <mxRectangle width="30" height="30" as="alternateBounds" />
          </mxGeometry>
        </mxCell>
        <mxCell id="kzIjWXEysifMPiXRa7z1-141" value="cartNo INT AUTO_INCREMENT PRIMARY KEY" style="shape=partialRectangle;overflow=hidden;connectable=0;fillColor=none;top=0;left=0;bottom=0;right=0;align=left;spacingLeft=6;fontStyle=5;" vertex="1" parent="kzIjWXEysifMPiXRa7z1-139">
          <mxGeometry x="30" width="500" height="30" as="geometry">
            <mxRectangle width="500" height="30" as="alternateBounds" />
          </mxGeometry>
        </mxCell>
        <mxCell id="kzIjWXEysifMPiXRa7z1-142" value="" style="shape=partialRectangle;collapsible=0;dropTarget=0;pointerEvents=0;fillColor=none;points=[[0,0.5],[1,0.5]];portConstraint=eastwest;top=0;left=0;right=0;bottom=0;" vertex="1" parent="kzIjWXEysifMPiXRa7z1-138">
          <mxGeometry y="60" width="530" height="200" as="geometry" />
        </mxCell>
        <mxCell id="kzIjWXEysifMPiXRa7z1-143" value="" style="shape=partialRectangle;overflow=hidden;connectable=0;fillColor=none;top=0;left=0;bottom=0;right=0;" vertex="1" parent="kzIjWXEysifMPiXRa7z1-142">
          <mxGeometry width="30" height="200" as="geometry">
            <mxRectangle width="30" height="200" as="alternateBounds" />
          </mxGeometry>
        </mxCell>
        <mxCell id="kzIjWXEysifMPiXRa7z1-144" value="Â  Â  cartNo INT AUTO_INCREMENT PRIMARY KEY&#xa;Â  Â  &#xa;Â Â Â Â memId VARCHAR(16) NOT NULL&#xa;&#xa;Â  Â  proNo INTEGER NOT NULL&#xa;&#xa;Â  Â  amount INTEGER NOT NULL&#xa;&#xa;Â  Â  price INTEGER DEFAULT 100&#xa;&#xa;Â  Â  imgsrc1 VARCHAR(5000) DEFAULT &#39;no_img.jpg&#39;" style="shape=partialRectangle;overflow=hidden;connectable=0;fillColor=none;top=0;left=0;bottom=0;right=0;align=left;spacingLeft=6;" vertex="1" parent="kzIjWXEysifMPiXRa7z1-142">
          <mxGeometry x="30" width="500" height="200" as="geometry">
            <mxRectangle width="500" height="200" as="alternateBounds" />
          </mxGeometry>
        </mxCell>
        <mxCell id="kzIjWXEysifMPiXRa7z1-145" value="review" style="shape=table;startSize=30;container=1;collapsible=1;childLayout=tableLayout;fixedRows=1;rowLines=0;fontStyle=1;align=center;resizeLast=1;" vertex="1" parent="WIyWlLk6GJQsqaUBKTNV-1">
          <mxGeometry x="850" y="1910" width="530" height="290" as="geometry" />
        </mxCell>
        <mxCell id="kzIjWXEysifMPiXRa7z1-146" value="" style="shape=partialRectangle;collapsible=0;dropTarget=0;pointerEvents=0;fillColor=none;points=[[0,0.5],[1,0.5]];portConstraint=eastwest;top=0;left=0;right=0;bottom=1;" vertex="1" parent="kzIjWXEysifMPiXRa7z1-145">
          <mxGeometry y="30" width="530" height="30" as="geometry" />
        </mxCell>
        <mxCell id="kzIjWXEysifMPiXRa7z1-147" value="PK" style="shape=partialRectangle;overflow=hidden;connectable=0;fillColor=none;top=0;left=0;bottom=0;right=0;fontStyle=1;" vertex="1" parent="kzIjWXEysifMPiXRa7z1-146">
          <mxGeometry width="30" height="30" as="geometry">
            <mxRectangle width="30" height="30" as="alternateBounds" />
          </mxGeometry>
        </mxCell>
        <mxCell id="kzIjWXEysifMPiXRa7z1-148" value="rno INT PRIMARY KEY AUTO_INCREMENT" style="shape=partialRectangle;overflow=hidden;connectable=0;fillColor=none;top=0;left=0;bottom=0;right=0;align=left;spacingLeft=6;fontStyle=5;" vertex="1" parent="kzIjWXEysifMPiXRa7z1-146">
          <mxGeometry x="30" width="500" height="30" as="geometry">
            <mxRectangle width="500" height="30" as="alternateBounds" />
          </mxGeometry>
        </mxCell>
        <mxCell id="kzIjWXEysifMPiXRa7z1-149" value="" style="shape=partialRectangle;collapsible=0;dropTarget=0;pointerEvents=0;fillColor=none;points=[[0,0.5],[1,0.5]];portConstraint=eastwest;top=0;left=0;right=0;bottom=0;" vertex="1" parent="kzIjWXEysifMPiXRa7z1-145">
          <mxGeometry y="60" width="530" height="230" as="geometry" />
        </mxCell>
        <mxCell id="kzIjWXEysifMPiXRa7z1-150" value="" style="shape=partialRectangle;overflow=hidden;connectable=0;fillColor=none;top=0;left=0;bottom=0;right=0;" vertex="1" parent="kzIjWXEysifMPiXRa7z1-149">
          <mxGeometry width="30" height="230" as="geometry">
            <mxRectangle width="30" height="230" as="alternateBounds" />
          </mxGeometry>
        </mxCell>
        <mxCell id="kzIjWXEysifMPiXRa7z1-151" value="rno INT PRIMARY KEY AUTO_INCREMENT&#xa;&#xa;memId VARCHAR(16) NOT NULL&#xa;&#xa;Â  Â  payNo INT NOT NULL&#xa;&#xa;Â  Â  star INT DEFAULT 5&#xa;&#xa;Â  Â  content VARCHAR(1000)&#xa;&#xa;Â  Â  regdate TIMESTAMP NOT NULL DEFAULT CURRENT_TIMESTAMP,&#xa;&#xa;Â  Â  proNo INT NOT NULL" style="shape=partialRectangle;overflow=hidden;connectable=0;fillColor=none;top=0;left=0;bottom=0;right=0;align=left;spacingLeft=6;" vertex="1" parent="kzIjWXEysifMPiXRa7z1-149">
          <mxGeometry x="30" width="500" height="230" as="geometry">
            <mxRectangle width="500" height="230" as="alternateBounds" />
          </mxGeometry>
        </mxCell>
      </root>
    </mxGraphModel>
  </diagram>
</mxfile>
